PathFileType	4	(X/Y/Z)	C:\Users\Basilio\Documents\Thesis Gigler\squatting_fais\c3dfiles\038\SLS_front_pre3\markers_experimental.trc
DataRate	CameraRate	NumFrames	NumMarkers	Units	OrigDataRate	OrigDataStartFrame	OrigNumFrames
200.000000	200.000000	4	61	mm	200.000000	1197	1368
Frame#	Time	FHD			LBHD			RBHD			C7			T10			CLAV			LSHO			LUUPA			LMUPA			LDUPA			LLEP			LMEP			LUL			LRFIN			RSHO			RUPA1			RMUPA			RDUPA			RLEP			RMEP			RRAD			RUL			RUFIN			LASI			RASI			USACR			LSACR			RSACR			LTHI1			LTHI2			LTHI3			LTHI4			LLFC			LMFC			LTIB1			LTIB2			LTIB3			LTIB4			LLMAL			LMMAL			LHEE			LMT1			LMT2			LMT5			RTHI			RTHI2			RTHI3			RTHI4			RLFC			RMFC			RTIB1			RTIB2			RTIB3			RTIB4			RLMAL			RMMAL			RHEE			RMT1			RMT2			RMT5			LRAD			
		X1	Y1	Z1	X2	Y2	Z2	X3	Y3	Z3	X4	Y4	Z4	X5	Y5	Z5	X6	Y6	Z6	X7	Y7	Z7	X8	Y8	Z8	X9	Y9	Z9	X10	Y10	Z10	X11	Y11	Z11	X12	Y12	Z12	X13	Y13	Z13	X14	Y14	Z14	X15	Y15	Z15	X16	Y16	Z16	X17	Y17	Z17	X18	Y18	Z18	X19	Y19	Z19	X20	Y20	Z20	X21	Y21	Z21	X22	Y22	Z22	X23	Y23	Z23	X24	Y24	Z24	X25	Y25	Z25	X26	Y26	Z26	X27	Y27	Z27	X28	Y28	Z28	X29	Y29	Z29	X30	Y30	Z30	X31	Y31	Z31	X32	Y32	Z32	X33	Y33	Z33	X34	Y34	Z34	X35	Y35	Z35	X36	Y36	Z36	X37	Y37	Z37	X38	Y38	Z38	X39	Y39	Z39	X40	Y40	Z40	X41	Y41	Z41	X42	Y42	Z42	X43	Y43	Z43	X44	Y44	Z44	X45	Y45	Z45	X46	Y46	Z46	X47	Y47	Z47	X48	Y48	Z48	X49	Y49	Z49	X50	Y50	Z50	X51	Y51	Z51	X52	Y52	Z52	X53	Y53	Z53	X54	Y54	Z54	X55	Y55	Z55	X56	Y56	Z56	X57	Y57	Z57	X58	Y58	Z58	X59	Y59	Z59	X60	Y60	Z60	X61	Y61	Z61	

1198	5.985	-206.1854858398438	1769.621948242188	-991.269226074219	-364.6727294921876	1724.427978515625	-1051.0341796875	-354.4785766601563	1707.23779296875	-906.6739501953127	-405.5450134277345	1530.83056640625	-978.238952636719	-362.2981872558594	1252.39501953125	-969.374450683594	-261.4301147460938	1526.271606445313	-993.976013183594	-332.7108764648438	1553.281982421875	-1135.48486328125	-169.6427612304688	1489.050170898438	-1267.96484375	-141.2276306152344	1522.69580078125	-1242.0244140625	-100.9271850585938	1495.674438476563	-1276.968994140625	-39.24997329711915	1497.302001953125	-1278.550659179688	-30.35910987854005	1422.251342773438	-1256.29052734375	256.9203796386719	1500.650756835938	-1249.48681640625	321.0068664550782	1511.068725585938	-1159.092651367188	-305.7275695800782	1545.90478515625	-844.8757324218752	-146.1577301025391	1505.125244140625	-727.9026489257814	-110.4237899780274	1519.07568359375	-758.2313842773439	-78.58845520019533	1499.138916015625	-710.3499755859376	-5.227025508880616	1496.494995117188	-700.4269409179689	-0.3512452244758607	1419.058471679688	-720.6511840820314	269.0750122070313	1489.869873046875	-789.9237060546877	281.4297790527344	1504.5283203125	-721.4409790039064	349.8718261718751	1522.72314453125	-797.5572509765627	-185.4856719970703	1073.790771484375	-1091.202392578125	-185.6924285888672	1086.0654296875	-836.2310180664065	-355.1571655273438	1124.379760742188	-964.7119750976565	-368.8197631835938	1095.530517578125	-991.4157714843752	-366.3667907714844	1096.647094726563	-935.691589355469	-248.3084564208985	752.4147338867189	-1138.48388671875	-224.9904785156251	670.7959594726564	-1132.423217773438	-177.1578216552735	671.6326293945314	-1115.112182617188	-256.6640319824219	624.2748413085939	-1113.182250976563	-258.6640625000001	561.3108520507814	-1106.598999023438	-240.4244842529297	549.5615844726564	-988.3543090820315	-240.0085601806641	368.7995300292969	-1043.234619140625	-290.2109985351563	332.9143676757813	-1108.402709960938	-254.9613952636719	324.0885009765626	-1080.656127929688	-272.5934143066407	246.0897674560547	-1054.654418945313	-367.1026000976563	116.8437957763672	-1073.688110351563	-325.9772949218751	129.9439239501953	-1004.965515136719	-416.5072326660157	95.58684539794923	-1016.866088867188	-216.1894073486329	47.75120544433594	-1018.997497558594	-210.3652801513672	44.87991333007813	-1069.958862304688	-257.2943115234376	31.72150421142579	-1114.08251953125	-258.5847167968751	815.1116333007815	-781.5047607421877	-230.2738342285157	754.5816650390626	-775.2239990234377	-197.0571899414063	751.6406250000001	-779.2031860351565	-268.9658813476563	679.3599243164064	-791.1098632812502	-272.4056091308594	541.6515502929689	-793.8696289062502	-276.4112854003907	537.7044677734376	-915.3178710937502	-240.4818267822266	363.2754516601563	-817.9827270507815	-317.9718322753907	287.9204406738282	-775.6995239257815	-272.8587341308594	288.2585144042969	-788.0368652343752	-267.0316467285157	236.5343322753907	-817.5474243164065	-336.0982971191407	118.3278350830078	-783.6853027343752	-309.3433227539063	123.6280746459961	-863.4153442382815	-398.254852294922	83.7292938232422	-843.100280761719	-184.3128814697266	48.98477935791017	-842.4882812500002	-185.1351318359375	47.82801818847657	-795.5605468750002	-228.6238708496094	33.93046951293946	-750.0542602539064	249.6111450195313	1482.131591796875	-1178.546630859375	
1199	5.99	-205.9357147216797	1769.442626953125	-991.0593872070315	-364.7288818359376	1724.677978515625	-1050.638549804688	-354.7155761718751	1706.764404296875	-905.689636230469	-405.5458984375001	1530.825439453125	-977.8697509765627	-362.0617370605469	1252.241333007813	-969.0628662109377	-261.3035583496094	1526.282348632813	-993.6763305664065	-332.6377258300782	1553.315673828125	-1135.154907226563	-169.473373413086	1489.231079101563	-1267.510375976563	-141.1093902587891	1522.703979492188	-1241.632568359375	-100.7494888305664	1495.741821289063	-1276.5830078125	-39.12985229492188	1497.509033203125	-1278.0927734375	-30.19600868225098	1422.453735351563	-1255.895751953125	257.0205078125001	1501.020141601563	-1249.098022460938	321.0886230468751	1511.491333007813	-1158.719970703125	-305.6669006347657	1546.016357421875	-844.5372314453127	-146.0343780517578	1505.1416015625	-727.5707397460939	-110.3336029052735	1519.041381835938	-757.8528442382814	-78.64291381835939	1499.078857421875	-710.0177001953126	-5.116437435150147	1496.426391601563	-700.0231323242189	-0.2328308373689652	1419.121704101563	-720.2122802734376	269.1133117675782	1490.064208984375	-789.7049560546877	281.4930419921876	1504.656127929688	-721.2478027343751	349.8908996582032	1522.940673828125	-797.5242309570315	-185.2294158935547	1073.7421875	-1090.923461914063	-185.4038543701172	1086.117431640625	-836.0759887695315	-354.9050903320313	1124.348266601563	-964.4042968750002	-368.6469726562501	1095.529663085938	-991.175476074219	-366.0877990722657	1096.663452148438	-935.3819580078127	-248.3039093017579	752.3253173828126	-1137.814697265625	-224.993392944336	670.7854003906251	-1132.2744140625	-176.9893341064453	671.5546264648439	-1115.04638671875	-256.6539001464844	624.2839965820314	-1113.034057617188	-258.5899963378907	561.3289184570314	-1106.524291992188	-240.290267944336	549.5613403320314	-988.256042480469	-240.0030822753907	368.7628784179688	-1043.223876953125	-290.1729736328126	332.9224548339844	-1108.38427734375	-254.9855499267579	324.1154479980469	-1080.654418945313	-272.6395263671876	246.0101013183594	-1054.687255859375	-367.4763183593751	117.203842163086	-1073.663696289063	-325.9874267578126	129.9131622314453	-1004.985412597656	-416.5330810546876	95.59681701660158	-1016.825561523438	-216.209213256836	47.77865982055665	-1018.981872558594	-210.3987579345704	44.84716033935548	-1070.025756835938	-257.3005981445313	31.66779136657716	-1114.1279296875	-258.3498535156251	815.1094360351565	-781.2754516601565	-230.0180969238282	754.5529174804689	-775.0805664062502	-196.8013000488282	751.5861816406251	-779.0430908203127	-268.6550598144532	679.2664794921876	-790.9191894531252	-272.1690673828126	541.5599365234376	-793.7718505859377	-276.1600341796876	537.6793823242189	-915.241149902344	-240.2881164550782	363.2316284179688	-817.9624633789065	-317.8517456054688	287.8808288574219	-775.6226806640627	-272.7817993164063	288.1879577636719	-788.0254516601565	-266.9551391601563	236.4928588867188	-817.5543212890627	-336.0627441406251	118.3742218017578	-783.6827392578127	-309.3846130371094	123.6523818969727	-863.4232177734377	-398.2140502929689	83.72158050537111	-843.0917968750002	-184.3211059570313	48.96229553222658	-842.5205078125002	-185.1513671875	47.79771041870118	-795.5757446289065	-228.6388549804688	33.92977142333985	-750.0549316406251	249.4266815185547	1482.50830078125	-1178.106079101563	
1200	5.995	-205.9310455322266	1769.451538085938	-990.5852050781252	-364.8235168457032	1724.405517578125	-1050.226928710938	-354.6224365234376	1707.02587890625	-905.5737915039065	-405.5599975585939	1530.765014648438	-977.4117431640627	-361.8170166015626	1252.133422851563	-968.7387695312502	-261.2502441406251	1526.3173828125	-993.2294921875002	-332.5956726074219	1553.208251953125	-1134.795288085938	-169.4254760742188	1489.330078125	-1267.174438476563	-140.9732971191407	1522.773315429688	-1241.324340820313	-100.6153945922852	1495.93115234375	-1276.143676757813	-38.69618606567384	1497.265747070313	-1277.673583984375	-30.10132789611817	1422.678100585938	-1255.475708007813	257.0694580078126	1501.322143554688	-1248.650268554688	321.2043762207032	1511.897338867188	-1158.29736328125	-305.6483764648438	1545.958984375	-844.2113037109377	-145.9475555419922	1505.1728515625	-727.3059692382814	-110.27587890625	1518.995361328125	-757.5264282226564	-78.52886199951173	1499.087890625	-709.7524414062501	-4.936847209930421	1496.482788085938	-699.6844482421876	-0.1604965329170227	1419.184936523438	-719.8612670898439	269.1862182617188	1490.175903320313	-789.4523925781252	281.5839538574219	1504.829711914063	-721.0684204101564	349.8860168457032	1523.135620117188	-797.304626464844	-185.1317291259766	1073.73193359375	-1090.69140625	-185.1241302490235	1086.038208007813	-835.817077636719	-354.7044677734376	1124.429443359375	-964.2189941406252	-368.3059082031251	1095.502563476563	-990.9075927734377	-365.7429504394532	1096.577392578125	-935.090026855469	-248.2746887207032	752.3804931640626	-1137.66259765625	-224.8769683837891	670.8777465820314	-1132.163208007813	-176.9202423095703	671.5492553710939	-1114.925903320313	-256.5420532226563	624.2913208007814	-1112.960693359375	-258.5698547363282	561.3293457031251	-1106.4130859375	-240.2736053466797	549.5929565429689	-988.2103271484377	-240.2504882812501	368.3183288574219	-1043.469848632813	-290.1868591308594	332.9429321289063	-1108.377563476563	-255.0198364257813	324.1435546875001	-1080.636840820313	-272.5963745117188	246.0979919433594	-1054.66650390625	-367.5958557128907	117.1566772460938	-1073.665161132813	-325.9867553710938	129.9903564453125	-1005.028259277344	-416.5213012695314	95.59944152832033	-1016.817016601563	-216.1939086914063	47.77513504028321	-1018.978820800781	-210.3811035156251	44.86014556884766	-1070.046630859375	-257.2537231445313	31.60976600646973	-1114.141967773438	-258.2047424316407	815.089782714844	-781.1123657226565	-229.7713012695313	754.5324096679689	-774.9146118164065	-196.485580444336	751.5435180664064	-778.8256835937502	-268.3449707031251	679.2158813476564	-790.7460937500002	-271.8798828125001	541.5166625976564	-793.6708984375002	-275.9271850585938	537.6914672851564	-915.1452636718752	-240.1667022705079	363.1802368164063	-817.9097290039065	-317.7791748046876	287.8526916503907	-775.6016845703127	-272.6503295898438	288.1499023437501	-787.959899902344	-266.8784790039063	236.4503631591797	-817.4993286132815	-336.0441589355469	118.3700866699219	-783.6933593750002	-309.3167419433594	123.6297988891602	-863.4065551757815	-398.2207946777345	83.77640533447267	-843.087829589844	-184.2999114990235	48.95126342773439	-842.4985351562502	-185.1368865966797	47.78880310058594	-795.5848388671877	-228.6287994384766	33.92387390136719	-750.0355834960939	249.0285797119141	1482.940307617188	-1177.939208984375	
1201	6	-206.1839141845704	1769.369018554688	-989.8756103515627	-364.7468566894532	1724.720581054688	-1049.7353515625	-354.7335205078126	1706.931274414063	-905.148864746094	-405.4743041992189	1530.66064453125	-976.978698730469	-361.9789428710938	1251.947998046875	-968.5435791015627	-261.4714660644532	1525.649047851563	-992.8666992187502	-332.4155273437501	1553.321411132813	-1134.436889648438	-169.3044586181641	1489.466186523438	-1266.776977539063	-140.8526458740235	1522.817138671875	-1240.706298828125	-100.5677185058594	1496.078125	-1275.78271484375	-38.58332824707032	1497.53857421875	-1277.093017578125	-29.88467597961426	1422.80810546875	-1255.094360351563	257.1376647949219	1501.67626953125	-1248.23486328125	321.2465515136719	1512.273681640625	-1157.9287109375	-305.6043395996094	1545.872802734375	-843.8552246093752	-145.806396484375	1505.12890625	-726.9367675781251	-110.2210006713867	1518.976318359375	-757.2030029296876	-78.4573211669922	1499.04833984375	-709.4489746093751	-4.845263481140138	1496.49365234375	-699.3815917968751	-0.01327667944133282	1419.178344726563	-719.6848754882814	269.2130126953126	1490.23193359375	-789.259948730469	281.4164428710938	1504.741577148438	-721.0411376953126	349.9376220703126	1523.4013671875	-797.244812011719	-184.9872131347657	1073.664428710938	-1090.442749023438	-184.8338012695313	1086.038452148438	-835.5689697265627	-354.6408386230469	1123.874389648438	-963.8874511718752	-368.0364685058594	1095.554931640625	-990.6113891601565	-365.5170898437501	1096.559936523438	-934.8284301757815	-248.2023315429688	752.3974609375001	-1137.531372070313	-224.8493194580079	670.8662109375001	-1132.04638671875	-176.8682556152344	671.5546264648439	-1114.846069335938	-256.5039062500001	624.3198852539064	-1112.854370117188	-258.5240478515626	561.3276977539064	-1106.350463867188	-240.1530761718751	549.5225219726564	-988.122985839844	-240.1937561035157	368.3080444335938	-1043.462646484375	-290.1816101074219	332.9612121582032	-1108.331787109375	-254.9892120361329	324.1496582031251	-1080.655029296875	-272.6144714355469	246.0748443603516	-1054.715087890625	-367.5446472167969	117.1482238769532	-1073.689697265625	-325.9307556152344	129.962631225586	-1005.08740234375	-416.5401000976564	95.61041259765626	-1016.804931640625	-216.2373046875001	47.83593368530274	-1019.034240722656	-210.4341583251954	44.93301010131837	-1070.05810546875	-257.2537841796876	31.62837600708009	-1114.147216796875	-258.0416259765626	815.0205078125002	-780.9509277343752	-229.4960479736329	754.4358520507814	-774.7805786132815	-196.2289733886719	751.5102539062501	-778.5466308593752	-267.9660644531251	679.1177978515626	-790.5638427734377	-271.6503601074219	541.4876708984376	-793.5591430664065	-275.6936340332032	537.6776733398439	-915.0654907226565	-240.027572631836	363.1443786621094	-817.9050292968752	-317.6493530273438	287.8285827636719	-775.5335693359377	-272.5016174316407	288.0997924804688	-787.9259033203127	-266.7732543945313	236.3931579589844	-817.4927978515627	-336.0230407714844	118.3794326782227	-783.673034667969	-309.2945861816407	123.6767578125	-863.4099731445315	-398.2350463867189	83.7299041748047	-843.0811157226565	-184.3127899169922	48.94698715209962	-842.5049438476565	-185.0937805175782	47.7725944519043	-795.5889282226565	-228.6373901367188	33.92154693603516	-750.0463867187501	248.6768798828126	1483.394287109375	-1177.74267578125	
